<svg xmlns="http://www.w3.org/2000/svg" width="378" height="76" viewBox="0 0 378 76" fill="none"><g clip-path="url(#clip0_13_47)"><path fill-rule="evenodd" clip-rule="evenodd" d="M334.311 75.5906H0L43.6422 0H377.953L334.311 75.5906ZM5.81291 72.2306H332.379L372.14 3.36H45.5735L5.81291 72.2306Z" fill="white"></path><path fill-rule="evenodd" clip-rule="evenodd" d="M19.3663 68.8631L55.2492 6.71631H47.5087L11.6259 68.8631H19.3663Z" fill="#D22346"></path><path fill-rule="evenodd" clip-rule="evenodd" d="M358.594 6.71631L322.711 68.8631H330.452L366.334 6.71631H358.594Z" fill="#D22346"></path><path fill-rule="evenodd" clip-rule="evenodd" d="M283.593 50.8761C283.261 51.084 282.992 51.3939 282.792 51.7454V50.4566H281.193V58.5675H283.004V54.444C283.004 53.4953 283.332 52.7394 284.069 52.3312C284.572 52.0402 285.252 52.0024 285.74 52.1385V50.4566C285.014 50.3356 284.19 50.4642 283.593 50.8761Z" fill="white"></path><path fill-rule="evenodd" clip-rule="evenodd" d="M275.834 51.8213C276.949 51.8213 277.538 52.3807 277.689 53.6392H273.717C273.925 52.4449 274.62 51.8213 275.834 51.8213ZM273.672 55.0074H279.523C279.73 52.0934 278.264 50.2339 275.762 50.2339C273.381 50.2339 271.74 51.946 271.74 54.5917C271.74 57.0635 273.411 58.7907 275.864 58.7907C277.421 58.7907 278.812 57.9517 279.432 56.4739L277.652 55.9334C277.3 56.6893 276.643 57.0937 275.762 57.0937C274.53 57.0937 273.812 56.3492 273.672 55.0074Z" fill="white"></path><path fill-rule="evenodd" clip-rule="evenodd" d="M268.486 51.8778H270.856V50.4567H268.486V48.2041H266.691V50.4567H265.228V51.8778H266.691V55.2529C266.691 56.1789 266.623 56.863 266.997 57.5584C267.628 58.7225 269.257 58.8661 270.856 58.56V57.0406C269.847 57.1918 269.012 57.1994 268.653 56.6022C268.456 56.2923 268.486 55.7934 268.486 55.1471V51.8778Z" fill="white"></path><path fill-rule="evenodd" clip-rule="evenodd" d="M261.007 50.2188C259.843 50.2188 258.958 50.6534 258.368 51.3526V50.4569H256.755V58.5677H258.58V54.3989C258.58 52.4298 259.555 51.9233 260.477 51.9233C262.197 51.9233 262.363 53.6581 262.363 54.6597V58.5677H264.189V54.0361C264.189 53.0723 263.985 50.2188 261.007 50.2188Z" fill="white"></path><path fill-rule="evenodd" clip-rule="evenodd" d="M251.637 51.8213C252.752 51.8213 253.342 52.3807 253.493 53.6392H249.521C249.729 52.4449 250.424 51.8213 251.637 51.8213ZM249.475 55.0074H255.322C255.534 52.0934 254.067 50.2339 251.562 50.2339C249.18 50.2339 247.544 51.946 247.544 54.5917C247.544 57.0635 249.211 58.7907 251.667 58.7907C253.221 58.7907 254.612 57.9517 255.235 56.4739L253.455 55.9334C253.104 56.6893 252.446 57.0937 251.562 57.0937C250.333 57.0937 249.615 56.3492 249.475 55.0074Z" fill="white"></path><path fill-rule="evenodd" clip-rule="evenodd" d="M241.504 58.7866C243.98 58.7866 245.684 57.4486 246.35 55.3321L244.532 54.8294C244.116 56.2316 243.114 57.082 241.504 57.082C239.335 57.082 238.246 55.521 238.246 53.1588C238.254 50.7966 239.335 49.2357 241.504 49.2357C243.114 49.2357 244.116 50.0861 244.532 51.4845L246.35 50.9818C245.684 48.8691 243.98 47.5273 241.504 47.5273C238.28 47.5273 236.349 49.8064 236.349 53.1588C236.349 56.5113 238.28 58.7866 241.504 58.7866Z" fill="white"></path><path fill-rule="evenodd" clip-rule="evenodd" d="M300.503 43.4001C302.581 43.4001 303.84 42.4061 303.84 40.7809C303.84 39.5185 303.137 38.8836 301.198 38.3809C299.308 37.9009 298.995 37.7195 298.995 37.247C298.995 36.7103 299.562 36.3777 300.408 36.4155C301.281 36.4685 301.841 36.8804 301.939 37.5721L303.78 37.2395C303.579 35.7844 302.26 34.8433 300.378 34.8433C298.458 34.8433 297.203 35.8222 297.203 37.3377C297.203 38.551 297.914 39.1595 299.936 39.6924C301.757 40.18 301.992 40.3122 301.992 40.864C301.992 41.4612 301.489 41.8278 300.631 41.8278C299.645 41.8278 298.957 41.3403 298.779 40.539L296.939 40.8263C297.211 42.459 298.511 43.4001 300.503 43.4001Z" fill="white"></path><path fill-rule="evenodd" clip-rule="evenodd" d="M292.286 43.4039C294.089 43.4039 295.381 42.4855 295.884 40.8338L294.044 40.4218C293.768 41.2571 293.242 41.7069 292.286 41.7069C290.933 41.7069 290.245 40.6713 290.238 39.1217C290.245 37.6363 290.872 36.5403 292.286 36.5403C293.11 36.5403 293.813 37.0505 294.089 37.9198L295.884 37.4322C295.502 35.8335 294.142 34.8433 292.309 34.8433C289.856 34.8433 288.336 36.6385 288.329 39.1217C288.336 41.5708 289.788 43.4039 292.286 43.4039Z" fill="white"></path><path fill-rule="evenodd" clip-rule="evenodd" d="M284.731 43.1773H286.537V35.0664H284.731V43.1773Z" fill="white"></path><path fill-rule="evenodd" clip-rule="evenodd" d="M284.731 33.8495H286.537V32.1865H284.731V33.8495Z" fill="white"></path><path fill-rule="evenodd" clip-rule="evenodd" d="M280.467 36.4916H282.837V35.0705H280.467V32.8179H278.672V35.0705H277.206V36.4916H278.672V39.8629C278.672 40.7927 278.604 41.4768 278.978 42.1722C279.606 43.3363 281.238 43.4799 282.837 43.17V41.6544C281.828 41.8056 280.989 41.8131 280.63 41.2122C280.437 40.9061 280.467 40.4034 280.467 39.7609V36.4916Z" fill="white"></path><path fill-rule="evenodd" clip-rule="evenodd" d="M274.586 35.0664L272.387 40.8718L270.134 35.0664H268.26L271.525 43.1244L270.195 46.7829H271.884L276.389 35.0664H274.586Z" fill="white"></path><path fill-rule="evenodd" clip-rule="evenodd" d="M265.096 43.1772H266.899V32.1372H265.096V43.1772Z" fill="white"></path><path fill-rule="evenodd" clip-rule="evenodd" d="M261.026 40.6184C260.848 41.1815 260.168 41.9601 258.943 41.9601C258.089 41.9601 257.647 41.5255 257.647 40.9321C257.647 40.4067 258.002 40.1006 258.622 39.8663C259.189 39.6697 259.922 39.5563 261.207 39.356C261.199 39.7302 261.177 40.248 261.026 40.6184ZM262.689 36.3551C262.156 35.2817 261.01 34.8433 259.578 34.8433C257.681 34.8433 256.569 35.7541 256.173 37.1185L257.817 37.6363C258.081 36.8162 258.852 36.5063 259.578 36.5063C260.674 36.5063 261.162 36.9409 261.23 37.8707C259.82 38.0785 258.569 38.2524 257.718 38.5283C256.441 38.9743 255.882 39.7755 255.882 40.9548C255.882 42.2927 256.83 43.4039 258.584 43.4039C259.869 43.4039 260.727 42.9881 261.415 42.0886V43.1771H262.995V38.1995C262.995 37.504 262.972 36.9258 262.689 36.3551Z" fill="white"></path><path fill-rule="evenodd" clip-rule="evenodd" d="M251.21 34.8281C250.046 34.8281 249.162 35.2666 248.572 35.9658V35.0662H246.958V43.1771H248.784V39.0083C248.784 37.0391 249.759 36.5365 250.681 36.5365C252.401 36.5365 252.567 38.2713 252.567 39.2691V43.1771H254.392V38.6454C254.392 37.6854 254.188 34.8281 251.21 34.8281Z" fill="white"></path><path fill-rule="evenodd" clip-rule="evenodd" d="M239.32 39.141L240.899 34.1066L242.498 39.141H239.32ZM243.779 43.1775H245.631L242.237 32.3643H239.596L236.202 43.1775H238.054L238.794 40.8342H243.031L243.779 43.1775Z" fill="white"></path><path fill-rule="evenodd" clip-rule="evenodd" d="M316.483 21.0444C317.597 21.0444 318.191 21.6038 318.338 22.8624H314.366C314.574 21.6718 315.269 21.0444 316.483 21.0444ZM314.321 24.2306H320.171C320.379 21.3203 318.917 19.457 316.411 19.457C314.03 19.457 312.393 21.1729 312.393 23.8186C312.393 26.2904 314.06 28.0139 316.513 28.0139C318.07 28.0139 319.461 27.1748 320.081 25.7008L318.3 25.1566C317.949 25.9125 317.291 26.3169 316.411 26.3169C315.182 26.3169 314.464 25.5723 314.321 24.2306Z" fill="white"></path><path fill-rule="evenodd" clip-rule="evenodd" d="M307.049 27.791H308.859L311.792 19.6802H309.982L307.956 25.5611L305.922 19.6802H304.12L307.049 27.791Z" fill="white"></path><path fill-rule="evenodd" clip-rule="evenodd" d="M300.824 27.791H302.631V19.6802H300.824V27.791Z" fill="white"></path><path fill-rule="evenodd" clip-rule="evenodd" d="M300.824 18.459H302.631V16.7998H300.824V18.459Z" fill="white"></path><path fill-rule="evenodd" clip-rule="evenodd" d="M296.561 21.1049H298.93V19.6838H296.561V17.4312H294.765V19.6838H293.299V21.1049H294.765V24.4762C294.765 25.406 294.697 26.0863 295.071 26.7855C295.699 27.9496 297.328 28.0894 298.93 27.7833V26.2677C297.921 26.4151 297.082 26.4226 296.723 25.8255C296.53 25.5193 296.561 25.0167 296.561 24.3704V21.1049Z" fill="white"></path><path fill-rule="evenodd" clip-rule="evenodd" d="M288.522 26.3167C287.134 26.3167 286.416 25.3114 286.416 23.7353C286.416 22.2046 287.074 21.1501 288.522 21.1501C289.931 21.1501 290.638 22.1668 290.638 23.7353C290.638 25.2585 289.946 26.3167 288.522 26.3167ZM288.522 28.0138C290.933 28.0138 292.551 26.2676 292.551 23.7353C292.551 21.2257 290.956 19.4531 288.522 19.4531C286.14 19.4531 284.508 21.1879 284.508 23.7353C284.508 26.2449 286.095 28.0138 288.522 28.0138Z" fill="white"></path><path fill-rule="evenodd" clip-rule="evenodd" d="M280.369 19.4873C279.326 19.4873 278.415 19.9749 277.916 20.7799C277.489 19.99 276.699 19.4873 275.562 19.4873C274.59 19.4873 273.747 19.8993 273.218 20.572V19.6801H271.623V27.7909H273.441V22.7982C273.441 21.7928 274.042 21.1049 274.964 21.1049C275.905 21.1049 276.495 21.7701 276.495 22.8964V27.7909H278.29V22.8057C278.29 21.7361 278.948 21.1049 279.81 21.1049C280.736 21.1049 281.329 21.7626 281.329 22.8738V27.7909H283.136V22.4164C283.136 20.6627 282.153 19.4873 280.369 19.4873Z" fill="white"></path><path fill-rule="evenodd" clip-rule="evenodd" d="M265.962 26.3167C264.571 26.3167 263.856 25.3114 263.856 23.7353C263.856 22.2046 264.51 21.1501 265.962 21.1501C267.371 21.1501 268.078 22.1668 268.078 23.7353C268.078 25.2585 267.386 26.3167 265.962 26.3167ZM265.962 28.0138C268.369 28.0138 269.987 26.2676 269.987 23.7353C269.987 21.2257 268.392 19.4531 265.962 19.4531C263.581 19.4531 261.948 21.1879 261.948 23.7353C261.948 26.2449 263.535 28.0138 265.962 28.0138Z" fill="white"></path><path fill-rule="evenodd" clip-rule="evenodd" d="M258.69 21.1049H261.063V19.6838H258.69V17.4312H256.894V19.6838H255.432V21.1049H256.894V24.4762C256.894 25.406 256.83 26.0863 257.204 26.7855C257.832 27.9496 259.461 28.0894 261.063 27.7833V26.2677C260.054 26.4151 259.215 26.4226 258.856 25.8255C258.663 25.5193 258.69 25.0167 258.69 24.3704V21.1049Z" fill="white"></path><path fill-rule="evenodd" clip-rule="evenodd" d="M252.431 19.6802V23.849C252.431 25.8181 251.46 26.3208 250.537 26.3208C248.814 26.3208 248.648 24.586 248.648 23.5882V19.6802H246.826V24.2118C246.826 25.1718 247.026 28.0292 250.004 28.0292C251.168 28.0292 252.053 27.5945 252.642 26.8915V27.791H254.241V19.6802H252.431Z" fill="white"></path><path fill-rule="evenodd" clip-rule="evenodd" d="M239.32 23.7505L240.899 18.7199L242.498 23.7505H239.32ZM243.779 27.7908H245.631L242.237 16.9775H239.596L236.202 27.7908H238.054L238.794 25.4437H243.031L243.779 27.7908Z" fill="white"></path><path fill-rule="evenodd" clip-rule="evenodd" d="M170.574 45.3545V30.2364C170.574 28.3958 171.334 26.7176 172.554 25.4969C173.775 24.2761 175.453 23.5164 177.294 23.5164H205.965C207.806 23.5164 209.488 24.2761 210.705 25.4969C211.926 26.7176 212.685 28.3958 212.685 30.2364H219.405C219.405 22.8436 213.358 16.7964 205.965 16.7964H177.294C169.901 16.7964 163.854 22.8436 163.854 30.2364V45.3545C163.854 52.7473 169.901 58.7945 177.294 58.7945H205.965C213.358 58.7945 219.405 52.7473 219.405 45.3545H212.685C212.685 47.1951 211.926 48.8732 210.705 50.094C209.488 51.3148 207.806 52.0745 205.965 52.0745H177.294C175.453 52.0745 173.775 51.3148 172.554 50.094C171.334 48.8732 170.574 47.1951 170.574 45.3545Z" fill="white"></path><path fill-rule="evenodd" clip-rule="evenodd" d="M139.612 16.7964L163.854 58.7945H156.132L150.743 49.4591L152.251 52.0745H123.107L126.985 45.3545H148.373L135.749 23.4861L115.366 58.7945H107.641L131.887 16.7964H139.612Z" fill="white"></path><path fill-rule="evenodd" clip-rule="evenodd" d="M83.3953 16.7964L107.641 58.7945H99.9157L94.5298 49.4591L96.0379 52.0745H66.8901L70.7679 45.3545H92.1563L79.5327 23.4861L59.1497 58.7945H51.4243L75.67 16.7964H83.3953Z" fill="white"></path></g><defs><clipPath id="clip0_13_47"><rect width="377.953" height="75.5906" fill="white"></rect></clipPath></defs></svg>