<svg xmlns="http://www.w3.org/2000/svg" width="378" height="8" viewBox="0 0 378 8" fill="none"><g clip-path="url(#clip0_13_2)"><path fill-rule="evenodd" clip-rule="evenodd" d="M0 6.70471H5.85449L9.23339 0.854004H3.3789L0 6.70471Z" fill="#404040"></path><path fill-rule="evenodd" clip-rule="evenodd" d="M8.77979 6.70471H14.6305L18.0094 0.854004H12.1587L8.77979 6.70471Z" fill="#404040"></path><path fill-rule="evenodd" clip-rule="evenodd" d="M17.5597 6.70471H23.4104L26.7893 0.854004H20.9386L17.5597 6.70471Z" fill="#404040"></path><path fill-rule="evenodd" clip-rule="evenodd" d="M26.3357 6.70471H32.1902L35.5691 0.854004H29.7146L26.3357 6.70471Z" fill="#404040"></path><path fill-rule="evenodd" clip-rule="evenodd" d="M35.1156 6.70471H40.9701L44.349 0.854004H38.4945L35.1156 6.70471Z" fill="#404040"></path><path fill-rule="evenodd" clip-rule="evenodd" d="M43.8954 6.70471H49.7499L53.1288 0.854004H47.2743L43.8954 6.70471Z" fill="#404040"></path><path fill-rule="evenodd" clip-rule="evenodd" d="M52.6753 6.70471H58.526L61.9049 0.854004H56.0542L52.6753 6.70471Z" fill="#404040"></path><path fill-rule="evenodd" clip-rule="evenodd" d="M61.4551 6.70471H67.3058L70.6847 0.854004H64.834L61.4551 6.70471Z" fill="#404040"></path><path fill-rule="evenodd" clip-rule="evenodd" d="M70.2312 6.70471H76.0857L79.4646 0.854004H73.6101L70.2312 6.70471Z" fill="#404040"></path><path fill-rule="evenodd" clip-rule="evenodd" d="M79.011 6.70471H84.8655L88.2444 0.854004H82.3899L79.011 6.70471Z" fill="#404040"></path><path fill-rule="evenodd" clip-rule="evenodd" d="M87.7909 6.70471H93.6454L97.0243 0.854004H91.1698L87.7909 6.70471Z" fill="#404040"></path><path fill-rule="evenodd" clip-rule="evenodd" d="M96.5707 6.70471H102.421L105.8 0.854004H99.9496L96.5707 6.70471Z" fill="#404040"></path><path fill-rule="evenodd" clip-rule="evenodd" d="M105.351 6.70471H111.201L114.58 0.854004H108.729L105.351 6.70471Z" fill="#404040"></path><path fill-rule="evenodd" clip-rule="evenodd" d="M114.127 6.70471H119.981L123.36 0.854004H117.505L114.127 6.70471Z" fill="#404040"></path><path fill-rule="evenodd" clip-rule="evenodd" d="M122.906 6.70471H128.761L132.14 0.854004H126.285L122.906 6.70471Z" fill="#404040"></path><path fill-rule="evenodd" clip-rule="evenodd" d="M131.686 6.70471H137.541L140.92 0.854004H135.065L131.686 6.70471Z" fill="#404040"></path><path fill-rule="evenodd" clip-rule="evenodd" d="M140.466 6.70471H146.317L149.696 0.854004H143.845L140.466 6.70471Z" fill="#404040"></path><path fill-rule="evenodd" clip-rule="evenodd" d="M149.246 6.70471H155.097L158.476 0.854004H152.625L149.246 6.70471Z" fill="#404040"></path><path fill-rule="evenodd" clip-rule="evenodd" d="M158.022 6.70471H163.877L167.255 0.854004H161.401L158.022 6.70471Z" fill="#404040"></path><path fill-rule="evenodd" clip-rule="evenodd" d="M166.802 6.70471H172.656L176.035 0.854004H170.181L166.802 6.70471Z" fill="#404040"></path><path fill-rule="evenodd" clip-rule="evenodd" d="M175.582 6.70471H181.436L184.815 0.854004H178.961L175.582 6.70471Z" fill="#404040"></path><path fill-rule="evenodd" clip-rule="evenodd" d="M184.362 6.70471H190.212L193.591 0.854004H187.74L184.362 6.70471Z" fill="#404040"></path><path fill-rule="evenodd" clip-rule="evenodd" d="M193.138 6.70471H198.992L202.371 0.854004H196.52L193.138 6.70471Z" fill="#404040"></path><path fill-rule="evenodd" clip-rule="evenodd" d="M201.917 6.70471H207.772L211.151 0.854004H205.296L201.917 6.70471Z" fill="#404040"></path><path fill-rule="evenodd" clip-rule="evenodd" d="M210.697 6.70471H216.552L219.931 0.854004H214.076L210.697 6.70471Z" fill="#404040"></path><path fill-rule="evenodd" clip-rule="evenodd" d="M219.477 6.70471H225.328L228.711 0.854004H222.856L219.477 6.70471Z" fill="#404040"></path><path fill-rule="evenodd" clip-rule="evenodd" d="M228.257 6.70471H234.108L237.487 0.854004H231.636L228.257 6.70471Z" fill="#404040"></path><path fill-rule="evenodd" clip-rule="evenodd" d="M237.033 6.70471H242.888L246.266 0.854004H240.416L237.033 6.70471Z" fill="#404040"></path><path fill-rule="evenodd" clip-rule="evenodd" d="M245.813 6.70471H251.667L255.046 0.854004H249.192L245.813 6.70471Z" fill="#404040"></path><path fill-rule="evenodd" clip-rule="evenodd" d="M254.593 6.70471H260.447L263.826 0.854004H257.972L254.593 6.70471Z" fill="#404040"></path><path fill-rule="evenodd" clip-rule="evenodd" d="M263.373 6.70471H269.223L272.606 0.854004H266.751L263.373 6.70471Z" fill="#404040"></path><path fill-rule="evenodd" clip-rule="evenodd" d="M272.152 6.70471H278.003L281.382 0.854004H275.531L272.152 6.70471Z" fill="#404040"></path><path fill-rule="evenodd" clip-rule="evenodd" d="M280.928 6.70471H286.783L290.162 0.854004H284.311L280.928 6.70471Z" fill="#404040"></path><path fill-rule="evenodd" clip-rule="evenodd" d="M289.708 6.70471H295.563L298.942 0.854004H293.087L289.708 6.70471Z" fill="#404040"></path><path fill-rule="evenodd" clip-rule="evenodd" d="M298.488 6.70471H304.343L307.722 0.854004H301.867L298.488 6.70471Z" fill="#404040"></path><path fill-rule="evenodd" clip-rule="evenodd" d="M307.268 6.70471H313.119L316.501 0.854004H310.647L307.268 6.70471Z" fill="#404040"></path><path fill-rule="evenodd" clip-rule="evenodd" d="M316.048 6.70471H321.899L325.277 0.854004H319.427L316.048 6.70471Z" fill="#404040"></path><path fill-rule="evenodd" clip-rule="evenodd" d="M324.824 6.70471H330.678L334.057 0.854004H328.207L324.824 6.70471Z" fill="#404040"></path><path fill-rule="evenodd" clip-rule="evenodd" d="M333.604 6.70471H339.458L342.837 0.854004H336.983L333.604 6.70471Z" fill="#404040"></path><path fill-rule="evenodd" clip-rule="evenodd" d="M342.384 6.70471H348.238L351.617 0.854004H345.762L342.384 6.70471Z" fill="#404040"></path><path fill-rule="evenodd" clip-rule="evenodd" d="M351.163 6.70471H357.014L360.397 0.854004H354.542L351.163 6.70471Z" fill="#404040"></path><path fill-rule="evenodd" clip-rule="evenodd" d="M359.943 6.70471H365.794L369.173 0.854004H363.322L359.943 6.70471Z" fill="#404040"></path><path fill-rule="evenodd" clip-rule="evenodd" d="M368.719 6.70471H374.574L377.953 0.854004H372.102L368.719 6.70471Z" fill="#404040"></path></g><defs><clipPath id="clip0_13_2"><rect width="377.953" height="7.55906" fill="white"></rect></clipPath></defs></svg>